<?xml version="1.0" encoding="UTF-8" standalone="no"?>
<!DOCTYPE svg PUBLIC "-//W3C//DTD SVG 1.1//EN" "http://www.w3.org/Graphics/SVG/1.1/DTD/svg11.dtd">
<svg width="100%" height="100%" viewBox="0 0 1920 1080" version="1.1" xmlns="http://www.w3.org/2000/svg" xmlns:xlink="http://www.w3.org/1999/xlink" xml:space="preserve" xmlns:serif="http://www.serif.com/" style="fill-rule:evenodd;clip-rule:evenodd;stroke-linecap:round;stroke-linejoin:round;stroke-miterlimit:1.5;">
    <g transform="matrix(1,0,0,1,-290,-577.801)">
        <path d="M0,1080C0,1080 236.667,626.667 490,580C743.333,533.333 1249.61,867.98 2010,550C2560,320 2580,460 2580,460" style="fill:none;stroke:rgb(0,0,255);stroke-width:500px;"/>
    </g>
    <g transform="matrix(1,0,0,1,-210,-160)">
        <path d="M0,1080C0,1080 236.667,626.667 490,580C743.333,533.333 1249.61,867.98 2010,550C2560,320 2580,460 2580,460" style="fill:none;stroke:rgb(255,255,0);stroke-width:500px;"/>
    </g>
    <g transform="matrix(1,0,0,1,40,180)">
        <path d="M0,1080C0,1080 106.667,736.667 360,690C613.333,643.333 705.322,869.027 1630,700C2560,530 2580,460 2580,460" style="fill:none;stroke:rgb(255,0,0);stroke-width:500px;"/>
    </g>
</svg>
